<?xml version="1.0" encoding="UTF-8"?>
<svg xmlns="http://www.w3.org/2000/svg" xmlns:xlink="http://www.w3.org/1999/xlink" width="2400" height="2400" viewBox="0 0 2400 2400">
<path fill="none" stroke-width="92.3962" stroke-linecap="round" stroke-linejoin="bevel" stroke="rgb(13.729858%, 12.159729%, 12.548828%)" stroke-opacity="1" stroke-miterlimit="1145.92" d="M 4385.234375 15600.390625 C 3469.804688 12197.382812 3646.914062 7421.914062 4392.03125 4855.898438 C 4713.398438 3749.0625 5484.726562 3074.960938 5439.101562 2314.179688 C 5410.234375 1832.96875 4953.085938 1173.671875 5034.882812 764.648438 C 5116.71875 355.625 5650.820312 442.265625 5809.648438 447.070312 C 5883.828125 449.296875 6846.5625 490.507812 7824.414062 496.523438 C 8938.828125 503.398438 10087.1875 482.226562 10212.8125 615.46875 C 10448.59375 865.703125 10641.09375 2766.523438 11064.492188 3738.554688 C 11488.007812 4710.585938 12787.304688 6308.242188 13172.304688 8069.453125 C 13557.1875 9830.703125 13489.882812 14825.703125 13162.695312 15845.898438 C 12835.390625 16866.015625 12440.78125 17713.007812 12440.78125 17713.007812 M 15662.304688 8891.445312 C 18126.09375 9977.890625 19412.5 11678.203125 19232.890625 14993.203125 C 18970.898438 18777.304688 21243.007812 18904.492188 21559.492188 15309.6875 C 21902.109375 10981.914062 19893.007812 7912.96875 15758.515625 6639.375 M 9332.34375 7453.515625 C 9245.703125 7370.507812 8290.820312 5960.898438 8235.15625 5324.140625 M 7157.226562 8538.632812 C 7157.226562 8538.632812 8138.90625 6267.304688 8235.15625 5324.140625 C 8331.40625 4380.976562 7965.703125 3765 7965.703125 3206.796875 C 7965.703125 2648.632812 8047.460938 2148.125 7970.507812 1580.3125 C 7893.515625 1012.460938 8016.953125 590.429688 7824.414062 496.523438 M 10419.804688 675.625 C 10419.804688 675.625 13653.515625 579.414062 14009.609375 617.890625 C 14365.703125 656.40625 14750.703125 685.273438 14692.890625 1349.335938 C 14635.195312 2013.398438 14298.28125 2119.257812 14288.710938 2225.15625 C 14279.101562 2331.015625 15450.117188 4424.140625 15559.21875 5535.898438 C 15737.890625 7358.085938 14940.898438 12475.585938 13557.304688 13437.382812 M 3466.601562 9695.9375 C 3241.132812 7920.585938 2467.421875 6772.421875 2407.578125 5889.609375 C 2351.328125 5059.765625 2796.679688 732.617188 4577.851562 629.921875 C 4866.71875 613.242188 4938.75 651.5625 4938.75 651.5625 M 7991.914062 22519.414062 C 8304.101562 22519.414062 9300.859375 22283.59375 9541.445312 22326.914062 C 9782.03125 22370.3125 10706.015625 23479.492188 11153.515625 23380.78125 C 12191.914062 23151.914062 11658.515625 21533.90625 11832.109375 21172.109375 C 12245.898438 20309.804688 12507.1875 18828.085938 12262.617188 17666.210938 C 12173.59375 17243.515625 12017.8125 16863.085938 11778.007812 16570.3125 C 11130.703125 15779.804688 9814.6875 15378.984375 8256.679688 15344.609375 C 6590.351562 15307.890625 5636.25 15480.117188 5052.65625 15772.890625 C 4788.007812 15905.585938 4599.53125 16063.203125 4455.390625 16237.382812 C 3993.4375 16795.585938 3579.296875 18097.1875 3762.148438 19078.90625 C 3945 20060.507812 4301.054688 20108.710938 4378.046875 20426.289062 C 4455.039062 20743.90625 4522.382812 21513.789062 4445.390625 21735.195312 C 4306.015625 22135.898438 4125 23563.789062 4801.484375 23563.789062 C 5147.96875 23563.789062 5999.726562 22505.117188 6418.359375 22394.414062 C 6837.03125 22283.789062 7515.546875 22505.117188 7991.914062 22519.414062 Z M 7991.914062 22519.414062 " transform="matrix(0.1, 0, 0, -0.1, 0, 2400)"/>
</svg>
